<mxfile host="Electron" modified="2024-03-20T05:34:06.033Z" agent="Mozilla/5.0 (Macintosh; Intel Mac OS X 10_15_7) AppleWebKit/537.36 (KHTML, like Gecko) draw.io/24.0.4 Chrome/120.0.6099.109 Electron/28.1.0 Safari/537.36" etag="WW6XEWR29GK5hBZ_CT4Z" version="24.0.4" type="device">
  <diagram name="Page-1" id="pYXVmIgExTVIhxDMQ7Q1">
    <mxGraphModel dx="1189" dy="386" grid="1" gridSize="10" guides="1" tooltips="1" connect="1" arrows="1" fold="1" page="0" pageScale="1" pageWidth="850" pageHeight="1100" math="0" shadow="0">
      <root>
        <mxCell id="0" />
        <mxCell id="1" parent="0" />
        <mxCell id="rAT5umI4WLhzFv3D11Pl-13" value="State Diagram for Term Project" style="text;strokeColor=none;align=center;fillColor=none;html=1;verticalAlign=middle;whiteSpace=wrap;rounded=0;fontSize=20;fontStyle=1" parent="1" vertex="1">
          <mxGeometry x="340" y="790" width="330" height="30" as="geometry" />
        </mxCell>
        <mxCell id="rAT5umI4WLhzFv3D11Pl-15" value="" style="endArrow=classic;html=1;rounded=0;entryX=0.5;entryY=0;entryDx=0;entryDy=0;curved=1;exitX=0;exitY=1;exitDx=0;exitDy=0;fontSize=16;" parent="1" source="rAT5umI4WLhzFv3D11Pl-18" target="rAT5umI4WLhzFv3D11Pl-19" edge="1">
          <mxGeometry width="50" height="50" relative="1" as="geometry">
            <mxPoint x="260" y="1320" as="sourcePoint" />
            <mxPoint x="415.14359312880725" y="1261.7157287525383" as="targetPoint" />
            <Array as="points">
              <mxPoint x="570" y="960" />
            </Array>
          </mxGeometry>
        </mxCell>
        <mxCell id="rAT5umI4WLhzFv3D11Pl-17" value="START" style="rounded=0;whiteSpace=wrap;html=1;fontSize=16;" parent="1" vertex="1">
          <mxGeometry x="460" y="860" width="90" height="30" as="geometry" />
        </mxCell>
        <mxCell id="rAT5umI4WLhzFv3D11Pl-18" value="S0&lt;br style=&quot;font-size: 16px;&quot;&gt;Init" style="ellipse;whiteSpace=wrap;html=1;fontSize=16;" parent="1" vertex="1">
          <mxGeometry x="580" y="880" width="120" height="80" as="geometry" />
        </mxCell>
        <mxCell id="rAT5umI4WLhzFv3D11Pl-19" value="S1&lt;br style=&quot;font-size: 16px;&quot;&gt;WAIT" style="ellipse;whiteSpace=wrap;html=1;fontSize=16;" parent="1" vertex="1">
          <mxGeometry x="500" y="990" width="120" height="80" as="geometry" />
        </mxCell>
        <mxCell id="rAT5umI4WLhzFv3D11Pl-31" value="" style="endArrow=classic;html=1;rounded=0;entryX=0.5;entryY=0;entryDx=0;entryDy=0;curved=1;exitX=1;exitY=0.5;exitDx=0;exitDy=0;fontSize=16;" parent="1" source="rAT5umI4WLhzFv3D11Pl-17" target="rAT5umI4WLhzFv3D11Pl-18" edge="1">
          <mxGeometry width="50" height="50" relative="1" as="geometry">
            <mxPoint x="332" y="962" as="sourcePoint" />
            <mxPoint x="510" y="900" as="targetPoint" />
            <Array as="points">
              <mxPoint x="630" y="840" />
            </Array>
          </mxGeometry>
        </mxCell>
        <mxCell id="vWnbclFtSzo0CwNN01Se-3" value="S2&lt;br style=&quot;font-size: 16px;&quot;&gt;AIMING" style="ellipse;whiteSpace=wrap;html=1;fontSize=16;" vertex="1" parent="1">
          <mxGeometry x="590" y="1160" width="120" height="80" as="geometry" />
        </mxCell>
        <mxCell id="vWnbclFtSzo0CwNN01Se-5" value="S3&lt;br style=&quot;font-size: 16px;&quot;&gt;FIRING" style="ellipse;whiteSpace=wrap;html=1;fontSize=16;" vertex="1" parent="1">
          <mxGeometry x="290" y="1120" width="120" height="80" as="geometry" />
        </mxCell>
        <mxCell id="vWnbclFtSzo0CwNN01Se-9" value="" style="endArrow=classic;html=1;rounded=0;entryX=1;entryY=1;entryDx=0;entryDy=0;curved=1;exitX=0;exitY=1;exitDx=0;exitDy=0;fontSize=16;" edge="1" parent="1" source="vWnbclFtSzo0CwNN01Se-3" target="vWnbclFtSzo0CwNN01Se-5">
          <mxGeometry width="50" height="50" relative="1" as="geometry">
            <mxPoint x="620" y="1030" as="sourcePoint" />
            <mxPoint x="692" y="1172" as="targetPoint" />
            <Array as="points">
              <mxPoint x="540" y="1300" />
            </Array>
          </mxGeometry>
        </mxCell>
        <mxCell id="vWnbclFtSzo0CwNN01Se-10" value="[ time_waited &amp;gt;= AIMING_TIME ]" style="edgeLabel;html=1;align=center;verticalAlign=middle;resizable=0;points=[];fontSize=16;" vertex="1" connectable="0" parent="vWnbclFtSzo0CwNN01Se-9">
          <mxGeometry x="-0.0181" y="-4" relative="1" as="geometry">
            <mxPoint x="-30" y="-2" as="offset" />
          </mxGeometry>
        </mxCell>
        <mxCell id="vWnbclFtSzo0CwNN01Se-12" value="" style="endArrow=classic;html=1;rounded=0;entryX=1;entryY=0;entryDx=0;entryDy=0;curved=1;exitX=1;exitY=0.5;exitDx=0;exitDy=0;fontSize=16;" edge="1" parent="1" source="rAT5umI4WLhzFv3D11Pl-19" target="vWnbclFtSzo0CwNN01Se-3">
          <mxGeometry width="50" height="50" relative="1" as="geometry">
            <mxPoint x="618" y="1238" as="sourcePoint" />
            <mxPoint x="402" y="1198" as="targetPoint" />
            <Array as="points">
              <mxPoint x="770" y="1020" />
            </Array>
          </mxGeometry>
        </mxCell>
        <mxCell id="vWnbclFtSzo0CwNN01Se-13" value="[ BUTTON == 1 ]" style="edgeLabel;html=1;align=center;verticalAlign=middle;resizable=0;points=[];fontSize=16;" vertex="1" connectable="0" parent="vWnbclFtSzo0CwNN01Se-12">
          <mxGeometry x="-0.0181" y="-4" relative="1" as="geometry">
            <mxPoint x="-43" y="46" as="offset" />
          </mxGeometry>
        </mxCell>
        <mxCell id="vWnbclFtSzo0CwNN01Se-15" value="" style="endArrow=classic;html=1;rounded=0;entryX=0;entryY=0.5;entryDx=0;entryDy=0;curved=1;exitX=0.5;exitY=0;exitDx=0;exitDy=0;fontSize=16;" edge="1" parent="1" source="vWnbclFtSzo0CwNN01Se-5" target="rAT5umI4WLhzFv3D11Pl-19">
          <mxGeometry width="50" height="50" relative="1" as="geometry">
            <mxPoint x="618" y="1238" as="sourcePoint" />
            <mxPoint x="402" y="1198" as="targetPoint" />
            <Array as="points">
              <mxPoint x="340" y="1020" />
            </Array>
          </mxGeometry>
        </mxCell>
        <mxCell id="vWnbclFtSzo0CwNN01Se-16" value="[ time_waited &amp;gt;= FIRE_DELAY ]" style="edgeLabel;html=1;align=center;verticalAlign=middle;resizable=0;points=[];fontSize=16;" vertex="1" connectable="0" parent="vWnbclFtSzo0CwNN01Se-15">
          <mxGeometry x="-0.0181" y="-4" relative="1" as="geometry">
            <mxPoint x="-7" y="34" as="offset" />
          </mxGeometry>
        </mxCell>
      </root>
    </mxGraphModel>
  </diagram>
</mxfile>
